<?xml version="1.0" standalone="no"?>
<!DOCTYPE svg PUBLIC "-//W3C//DTD SVG 20010904//EN"
 "http://www.w3.org/TR/2001/REC-SVG-20010904/DTD/svg10.dtd">
<svg version="1.0" xmlns="http://www.w3.org/2000/svg"
 width="817.000000pt" height="733.000000pt" viewBox="0 0 817.000000 733.000000"
 preserveAspectRatio="xMidYMid meet">

<g transform="translate(0.000000,733.000000) scale(0.100000,-0.100000)"
fill="#000000" stroke="none">
<path d="M3570 7160 c-430 -35 -846 -147 -1245 -335 -78 -37 -114 -58 -109
-66 4 -8 3 -9 -4 -5 -17 10 -129 -52 -312 -172 -160 -106 -418 -315 -412 -335
1 -5 -1 -6 -6 -3 -11 7 -245 -228 -236 -237 4 -4 2 -7 -3 -7 -18 0 -206 -234
-287 -357 -16 -24 -25 -47 -20 -54 4 -7 3 -10 -4 -5 -12 7 -31 -18 -101 -136
-58 -99 -191 -367 -191 -385 0 -33 23 -6 52 60 176 396 454 778 809 1112 70
66 97 89 187 158 20 16 36 33 34 39 -1 5 1 7 6 4 5 -3 40 18 78 45 38 28 94
67 124 86 30 20 67 44 82 54 15 11 29 19 32 19 2 0 33 18 69 39 234 143 651
307 942 372 28 6 59 13 70 15 11 3 97 17 190 31 159 26 192 27 495 28 257 0
351 -4 450 -18 436 -61 822 -183 1180 -374 121 -64 268 -151 275 -163 4 -6
-95 -243 -124 -298 -6 -9 -57 -113 -116 -230 -166 -335 -324 -599 -522 -872
-235 -324 -439 -541 -769 -816 -66 -54 -200 -149 -291 -204 l-74 -45 0 -344
c0 -189 2 -345 5 -348 2 -3 26 10 53 28 90 62 253 130 346 144 l47 7 0 -146 0
-146 -27 -5 c-65 -12 -156 -47 -199 -77 -207 -140 -344 -452 -345 -788 -1
-399 166 -732 427 -852 41 -19 66 -23 159 -23 105 0 113 2 180 34 84 40 201
153 256 247 182 307 201 751 45 1079 -52 111 -103 182 -181 253 -78 71 -142
103 -257 127 l-28 5 0 150 0 149 33 5 c180 29 418 -13 612 -109 366 -180 586
-509 619 -926 7 -90 -17 -311 -43 -387 -80 -237 -244 -456 -432 -581 -133 -87
-321 -161 -451 -176 -29 -4 -96 -15 -148 -26 -202 -40 -339 -53 -570 -53 -156
0 -263 6 -350 17 -147 20 -328 55 -353 68 -16 9 -17 111 -17 1982 0 1569 -3
1972 -13 1970 -6 -1 -91 -29 -187 -62 -96 -34 -183 -61 -192 -61 -16 0 -18 14
-18 164 0 119 3 166 13 173 6 6 32 13 57 17 44 7 137 54 160 81 6 8 9 19 5 24
-3 7 0 8 9 5 20 -8 70 62 92 129 44 131 11 270 -90 372 -95 96 -214 132 -336
101 -146 -38 -243 -141 -275 -292 -24 -115 15 -235 106 -326 54 -54 117 -86
188 -97 l46 -6 0 -180 0 -179 -105 -28 c-157 -42 -315 -77 -510 -113 -122 -22
-175 -36 -175 -45 0 -11 56 -13 280 -14 l280 -1 3 -723 2 -722 -25 -10 c-37
-14 -333 -74 -511 -104 -375 -63 -907 -119 -1404 -147 -197 -11 -238 -19 -224
-40 2 -4 9 -42 15 -85 35 -262 116 -563 217 -814 82 -204 290 -596 323 -608 5
-2 9 -8 9 -13 0 -6 22 -43 49 -83 160 -236 466 -556 719 -749 571 -435 1240
-682 1939 -715 399 -19 683 8 1045 99 866 217 1652 802 2115 1574 283 470 447
988 484 1524 73 1052 -301 2037 -1047 2761 -544 528 -1234 858 -1994 955 -147
19 -530 27 -680 15z m2248 -657 c303 -214 593 -503 816 -813 193 -268 386
-652 486 -965 106 -334 155 -665 154 -1045 -1 -213 -4 -268 -28 -425 -72 -479
-190 -838 -404 -1225 -334 -604 -829 -1083 -1447 -1400 -362 -186 -747 -302
-1180 -356 -175 -22 -600 -25 -755 -6 -778 97 -1412 385 -1973 899 -474 433
-839 1044 -996 1669 -39 153 -68 302 -77 393 -6 68 -6 70 17 75 13 2 143 12
289 21 706 43 1187 106 1795 236 22 4 43 8 48 9 4 0 6 338 5 752 l-3 751 -185
-2 c-227 -3 -228 7 -4 54 88 18 204 45 259 60 55 15 116 31 135 35 42 9 108
30 260 82 63 22 122 40 130 41 13 2 16 -225 20 -1968 l5 -1970 40 -6 c22 -3
103 -18 180 -32 190 -36 315 -47 524 -47 185 0 382 18 541 50 52 11 128 24
169 31 174 26 361 105 499 208 565 426 613 1243 101 1726 -161 151 -356 249
-584 291 -127 23 -335 14 -461 -21 -108 -30 -209 -70 -282 -114 -29 -17 -57
-31 -62 -31 -12 0 -14 610 -2 625 4 6 36 29 72 52 328 214 599 458 873 786 59
71 129 159 154 195 26 37 50 69 53 72 12 10 198 297 250 385 29 50 69 116 88
148 77 131 261 508 376 770 14 31 28 57 31 57 4 0 36 -21 73 -47z m-2918 -219
c65 -26 100 -51 143 -103 173 -213 40 -521 -236 -545 -136 -11 -267 60 -326
179 -91 182 -10 391 181 471 64 26 168 26 238 -2z m1540 -3048 c88 -43 131
-77 191 -149 96 -115 164 -270 200 -457 19 -95 16 -358 -5 -448 -39 -177 -100
-313 -187 -421 -275 -340 -692 -208 -855 271 -82 243 -80 560 7 796 39 107
118 240 173 291 14 13 23 29 19 35 -3 6 -3 8 2 4 4 -4 25 6 46 22 80 64 163
90 274 86 63 -2 91 -8 135 -30z"/>
</g>
</svg>
